<?xml version="1.0" encoding="utf-8"?>
<svg xmlns="http://www.w3.org/2000/svg"
	xmlns:xlink="http://www.w3.org/1999/xlink"
	width="119px" height="129px" viewBox="0 0 119 129">
<path fillRule="evenodd" d="M 19.41 128.3C 19.41 128.3 5.02 128.3 5.02 128.3 6.69 124.72 41.98 51.87 50.01 36.34 50.01 36.34 56.48 47.17 56.68 49.26 55.39 51.85 34.7 98.33 19.41 128.3Z" fill="rgb(149,38,46)"/><path fillRule="evenodd" d="M 65.86 30.48C 65.86 30.48 60.88 20.97 59.31 19.46 60.69 17.69 71.86 7.2 86.41 6.12 86.41 6.12 92.83 5.41 98.13 7.95 95.37 7.19 93.34 6.9 89.11 7.63 80.07 9.19 69.44 22.82 65.86 30.48Z" fill="rgb(149,38,46)"/><path fillRule="evenodd" d="M 59.31 19.46C 59.31 19.46 75.16 0.01 92.92 0.5 110.69 0.98 118.8 15.98 118.15 28.05 117.5 40.12 112.39 53.25 87.16 70.27 61.93 87.28 3.78 107.21 3.78 107.21 3.78 107.21 0.13 102.26 0.13 102.26 0.13 102.26 37.92 87.69 56.5 76.99 75.08 66.3 110.77 46.77 108.01 22.78 105.25-1.2 74.45 3.58 59.31 19.46Z" fill="rgb(204,61,58)"/><path fillRule="evenodd" d="M 0.2 100.09C 0.2 100.09 11.07 95.96 11.07 95.96 11.07 95.96 12.86 62.16 18.71 42.47 24.55 22.78 30.52 19.26 36.38 18.89 42.87 18.49 47.22 25.14 52.85 34.37 58.53 43.69 68.75 66.86 68.75 66.86 68.75 66.86 77.1 62.49 78.48 60.71 77.35 58.27 65.91 35.26 61.77 28.37 59.01 23.77 50.41 8.03 34.84 8.52 19.27 9.01 11.88 27.81 9.37 35.67 6.85 43.53 4.01 56.65 2.64 66.78 1.26 76.91 0.28 94.66 0.2 100.09Z" fill="rgb(24,138,122)"/><path fillRule="evenodd" d="M 109.8 128.29C 109.8 128.29 97.38 128.29 97.38 128.29 97.38 128.29 74.83 80.33 74.83 80.33 74.83 80.33 83.59 75.78 84.81 74.4 86.67 77.95 109.59 127.84 109.8 128.29Z" fill="rgb(24,138,122)"/></svg>